<?xml version="1.0" encoding="UTF-8"?>
<svg id="Layer_2" data-name="Layer 2" xmlns="http://www.w3.org/2000/svg" viewBox="0 0 730.19 636.16">
  <defs>
    <style>
      .cls-1 {
        stroke-width: 0px;
      }
    </style>
  </defs>
  <g id="logo-black-horizontal">
    <g>
      <path class="cls-1" d="M662.55,404.33c-29.6-2.81-23.14-36.11-90.36-34.28-32.99,1.34-65.3,5.03-93.01-16.71,11.46,27.03,26.05,53.95,46.18,75.52l37.2-37.2c6.34-1.44,12.73-2.57,19.21-3.09,13.41-1.08,27.38.6,39.16,7.11,6.05,3.35,11.37,7.86,17.11,11.72,5.74,3.86,12.17,7.13,19.08,7.48,10.03.51,20.04-5.9,23.78-15.22,2.29-5.72,2.15-12.29-.41-18.07,3.31,10.3-4.9,22.07-17.94,22.73Z"/>
      <path class="cls-1" d="M607.62,445.41c-4.15,5.13-4.4,12.43-7.77,18.1-3.3,5.55-9.96,13.16-15.95,15.57-82.33,28.83-143.37-62.36-161.27-132.94-17.91,70.58-79.66,157.59-161.99,128.76-5.99-2.42-11.94-5.84-15.24-11.4-3.37-5.67-3.62-12.97-7.77-18.1-8.68-10.72-28.2-5.55-37.31-15.91,9.8,1.87,19.72-1.52,29.6-2.89,9.88-1.37,21.59.16,26.94,8.58,3.63,5.72,3.5,13.52,8.13,18.48,3.62,3.88,9.48,5.03,14.7,4.09,5.22-.94,9.93-3.67,14.34-6.62,34.34-23.06,56.15-60.35,72.03-97.78-27.71,21.74-60.02,18.05-93.01,16.71-67.22-1.84-60.75,31.47-90.36,34.28-17.62-.9-26.45-22.07-9.92-32.51.5-.41,1.05-.76,1.68-1.03-.58.32-1.13.67-1.68,1.03-3.99,3.25-4.11,10.5-.3,14.32,4.29,4.31,11.53,4.47,16.99,1.78,5.46-2.68,9.43-7.64,12.73-12.74,3.3-5.1,6.16-10.56,10.26-15.05,13.3-14.58,35.57-15.44,55.3-15.28,19.74.16,42.02-.78,55.24-15.43,4.84-5.37,7.89-12.04,11.58-18.27-14.14-9.25-32.08-14.3-48.58-10.03-12.65,3.27-23.39,11.65-35.74,15.93-26.17,9.03-54.54-1.15-76.53-16.1-6.37-4.24-13.08-9.07-20.73-8.88-6.75.17-12.66,4.24-18.85,6.92-6.19,2.68-14.92,4.16-19.51-.79,8.01,1.31,15.46-4.15,21.33-9.77,13.3-13.83,23.48-18.79,40.52-7.06,6.08,4.19,11.57,9.34,18.24,12.5,15.77,7.47,34.65,2.35,50.2-5.57,13.86-7.06,26.84-16.31,41.47-21.26-22.16-.52-47.39-7.98-58.76-28.32-7.26-12.14-5.92-30.37,8.77-35.76,8.29-2.87,20.88,2.01,25.26-8.08,1.58,6.39-3.59,13.56-10.15,14.08-5.15.41-11.07-2.5-15.1.73-3.55,2.84-2.66,8.89.63,12.04,3.29,3.14,8.05,4.11,12.55,4.79,21.43,3.63,47.6,2.06,61.67-16.62,12.23-16.47,7.1-37.43,6.43-56.49-1.67-40.2,13.17-83.07,41.55-112.27L318.08,0,0,318.08l318.08,318.08,149.77-149.77c33.4,12.26,63.3,16.81,85.79,16.31,14.61-.32,34.01-6.5,44.15-22.05,4.36-6.69,7.7-13.92,11.04-21.18,3.34-7.26,7.97-14.54,15.28-17.77,3.74-1.65,7.9-2.11,11.72-3.56,3.51-1.33,6.92-3.9,7.87-7.46-9.53,8.73-27.76,4.45-36.08,14.72Z"/>
      <path class="cls-1" d="M577.5,344.85c9.78-.08,20.19.1,29.81,2.07l28.85-28.84-.35-.35c-13.41,3.52-27.4,3.94-40.81-.68-12.35-4.28-23.09-12.65-35.74-15.93-16.5-4.27-34.44.78-48.58,10.03,3.69,6.23,6.74,12.91,11.58,18.27,13.22,14.65,35.5,15.59,55.24,15.43Z"/>
      <path class="cls-1" d="M713.91,288.08c-4.36-5-8.18-10.66-13.69-14.35-10.19-6.84-24.07-5.4-35.23-.29-6.69,3.07-12.87,7.34-19.95,9.35-9.83,2.79-18.98.12-28.71-3.01-5.83-1.87-10.86-4.83-15.73-7.71,3.16-2.16,6.18-4.51,8.99-7.13,10.38-9.67,17.86-23.05,18.2-37.23.22-9.26-3.15-19.37-11.02-24.25-5.44-3.37-11.18-3.96-16.87-3.84-9.98.2-11.76-.12-15.62-3.41.34.58.71,1.11,1.12,1.57.65.66,1.37,1.26,2.13,1.8,5.76,3.61,14.84,1.16,21.31,3.4,14.7,5.38,16.03,23.62,8.77,35.76-11.37,20.34-36.6,27.8-58.76,28.32,14.64,4.95,27.62,14.2,41.47,21.26,15.55,7.92,34.43,13.04,50.2,5.57,6.67-3.16,12.16-8.31,18.24-12.5,17.04-11.73,27.22-6.77,40.52,7.06,5.76,5.51,13.05,10.87,20.89,9.82-6.52-.6-11.97-5.22-16.28-10.17Z"/>
      <path class="cls-1" d="M355.49,141.44c-2.4,3.18-1.75,7.67-.62,11.5,3.1,10.5,8.95,20.16,16.83,27.77,12.35,11.93,27.92,4.31,24.2-12.98-2.66-12.36-15.46-25.4-27.33-28.78-4.54-1.29-10.23-1.27-13.08,2.49Z"/>
      <path class="cls-1" d="M476.86,180.7c3.75-3.62,7.02-7.72,9.78-12.14,3.03-4.86,5.43-10.12,7.05-15.62,1.13-3.82,1.78-8.31-.62-11.5-2.85-3.77-8.54-3.79-13.08-2.49-4.93,1.4-10.01,4.49-14.47,8.49-6.27,5.62-11.3,13.07-12.86,20.29-3.72,17.28,11.85,24.91,24.2,12.98Z"/>
      <path class="cls-1" d="M424.27,221.78c18.11,0,33.36-9.39,37.97-22.18-9.28,6.28-22.84,10.25-37.97,10.25s-28.69-3.97-37.97-10.25c4.6,12.79,19.85,22.18,37.97,22.18Z"/>
    </g>
  </g>
</svg>