<?xml version="1.0" encoding="UTF-8" standalone="no"?>
<!-- Created with Inkscape (http://www.inkscape.org/) -->

<svg
   version="1.1"
   id="svg299"
   width="546.1333"
   height="546.1333"
   viewBox="0 0 546.1333 546.1333"
   sodipodi:docname="user.svg"
   inkscape:version="1.2.2 (b0a8486541, 2022-12-01)"
   xmlns="http://www.w3.org/2000/svg"
   xmlns:svg="http://www.w3.org/2000/svg">
    <path
       style="fill:#000000;stroke-width:1.06667"
       d="M 248.18949,545.01565 C 140.78277,536.1654 43.347437,457.67748 12.625464,354.27462 -19.122727,256.23986 11.148578,141.59748 88.05005,72.75365 170.6778,-6.3870784 305.25108,-22.727519 404.55416,34.075212 c 90.71756,48.808052 148.5915,152.240698 140.72412,255.265468 -4.721,117.18135 -94.83362,223.7082 -209.03208,249.29175 -28.74608,6.97865 -58.63168,7.99917 -88.05671,6.38322 z m 59.01049,-33.47524 c 44.11214,-6.14054 85.94851,-25.33589 120.34908,-53.46875 -7.50443,-76.23751 -78.33803,-139.58196 -155.13069,-137.4082 -75.87947,-1.11955 -147.39136,61.9662 -153.18566,137.95022 51.92152,43.01255 121.21529,62.41741 187.96727,52.92673 z M 95.23624,417.23455 c 17.04457,-53.94473 60.52333,-97.03721 112.76027,-117.54871 -38.16232,-27.24165 -58.08238,-77.27541 -46.17288,-123.04103 13.97512,-63.62214 88.10784,-103.424302 148.92029,-80.419223 54.27562,17.927063 88.7395,80.021723 73.57777,135.512803 -6.24704,27.51678 -24.27076,50.99914 -46.18838,68.09848 55.60255,21.00409 99.9566,68.92585 115.77754,126.329 11.90975,-0.3504 25.78141,-30.94799 34.70002,-45.64418 C 534.17056,292.25875 516.88138,176.40132 446.32219,106.18998 376.66755,30.895815 256.59496,9.9644804 165.64534,57.566388 73.710219,101.90396 17.392768,209.22775 35.202048,310.08314 c 6.457967,44.14691 25.903239,86.34538 55.464613,119.76818 1.924099,-4.05191 3.127315,-8.38542 4.569579,-12.61677 z m 188.6392,-130.78572 c 51.57064,-4.49807 86.2598,-64.54174 66.52297,-111.81618 -17.42381,-48.17969 -82.7984,-69.2237 -124.13766,-38.07569 -43.14422,27.09101 -48.02204,94.62224 -9.98242,128.12649 17.76999,16.83784 43.29836,25.47902 67.59711,21.76538 z"
       id="path313" />
  </g>
</svg>
